<?xml version="1.0" encoding="UTF-8"?>
<svg width="32px" height="32px" viewBox="0 0 32 32" version="1.1" xmlns="http://www.w3.org/2000/svg" xmlns:xlink="http://www.w3.org/1999/xlink">
    <title>logo</title>
    <g id="logo" stroke="none" stroke-width="1" fill="none" fill-rule="evenodd">
        <path d="M10.2096445,14.2223599 C10.2301331,14.2223599 10.2497664,14.2305713 10.2641506,14.2451565 L12.8410137,16.8234126 C12.8622677,16.8452605 12.868525,16.8776337 12.8569428,16.9058238 C12.8453605,16.934014 12.8181474,16.9526453 12.7876673,16.9532529 L12.1289552,16.9532529 C12.0862921,16.9532344 12.0513501,16.9871365 12.0500953,17.0297659 L12.0500953,22.8262052 C12.0510305,23.1930961 12.1969165,23.5447634 12.4559919,23.8046441 L12.8410137,24.1895277 C12.8622677,24.2113756 12.868525,24.2437487 12.8569428,24.2719389 C12.8453605,24.300129 12.8181474,24.3187603 12.7876673,24.3193679 L9.74924183,24.3193679 C8.98065736,24.3193679 8.35759655,23.6965309 8.35759655,22.9282225 L8.35759655,17.0297659 C8.35759655,16.9875089 8.32332821,16.9532529 8.28105606,16.9532529 L7.6316216,16.9532529 C7.60072034,16.9535687 7.57266056,16.9352779 7.56048732,16.9068838 C7.54831408,16.8784898 7.55441581,16.8455636 7.57595579,16.8234126 L10.1551384,14.2451565 C10.1695225,14.2305713 10.1891558,14.2223599 10.2096445,14.2223599 Z M15.9084319,15.7155227 C15.9289205,15.7155227 15.9485538,15.7237341 15.962938,15.7383192 L18.5421206,18.3073011 C18.5636605,18.329452 18.5697623,18.3623783 18.557589,18.3907723 C18.5454158,18.4191663 18.517356,18.4374571 18.4864548,18.4371413 L17.8277427,18.4371413 C17.7850979,18.4383957 17.7511837,18.4733251 17.7512022,18.5159729 L17.7512022,22.8262052 C17.7515207,23.1927653 17.896554,23.5443864 18.1547793,23.8046441 L18.5421206,24.1895277 C18.5636605,24.2116786 18.5697623,24.2446049 18.557589,24.2729989 C18.5454158,24.3013929 18.517356,24.3196837 18.4864548,24.319372 L15.4549875,24.319372 C14.686403,24.319372 14.0633422,23.6965309 14.0633422,22.9282225 L14.0633422,18.5206101 C14.0633606,18.4779622 14.0294464,18.4430328 13.9868017,18.4417785 L13.330409,18.4417785 C13.2999289,18.4411709 13.2727158,18.4225396 13.2611336,18.3943494 C13.2495513,18.3661593 13.2558086,18.3337861 13.2770626,18.3119383 L15.8539258,15.7383192 C15.8683099,15.7237341 15.8879432,15.7155227 15.9084319,15.7155227 Z M21.608379,17.1926426 C21.6284911,17.1926426 21.6477421,17.2008016 21.6617254,17.2152519 L24.240908,19.7911896 C24.2638274,19.8128079 24.2711505,19.8462585 24.259359,19.8754705 C24.2475675,19.9046824 24.2190715,19.9236848 24.1875616,19.9233484 L23.5265301,19.9233484 C23.4842579,19.9233484 23.4499896,19.9576044 23.4499896,19.9998614 L23.4499896,22.8262052 C23.4509248,23.1930961 23.5968107,23.5447634 23.8558861,23.8046441 L24.240908,24.1895277 C24.2621619,24.2113756 24.2684193,24.2437487 24.256837,24.2719389 C24.2452547,24.300129 24.2180416,24.3187603 24.1875616,24.3193679 L21.1468166,24.3193679 C20.3782322,24.3193679 19.7551714,23.6965309 19.7551714,22.9282225 L19.7551714,19.9998614 C19.7551714,19.9576044 19.720903,19.9233484 19.6786309,19.9233484 L19.0291964,19.9233484 C18.9976865,19.9236848 18.9691905,19.9046824 18.957399,19.8754705 C18.9456075,19.8462585 18.9529306,19.8128079 18.97585,19.7911896 L21.5550326,17.2152519 C21.5690159,17.2008016 21.5882669,17.1926426 21.608379,17.1926426 Z M15.8562452,6.00014944 C19.9075477,6.02948656 23.480779,8.65933083 24.711748,12.5178175 C27.7204765,12.9103455 29.9780148,15.4620312 30,18.4951057 C30,21.029309 28.3949691,23.1299386 25.8111477,23.9762187 L25.8111477,23.9762187 L25.6951773,24.0133159 L25.6951773,22.1445439 C27.3025276,21.4675198 28.246527,20.1297016 28.246527,18.4951057 C28.2382028,16.162613 26.3696552,14.2628335 24.0368,14.215015 L24.0368,14.215015 L23.3409774,14.215015 L23.1739799,13.5519023 C22.3543924,10.1700249 19.3371123,7.7800119 15.8562452,7.75546303 C12.9576206,7.74155307 10.313581,9.40806514 9.07661328,12.0285981 L9.07661328,12.0285981 L8.86322767,12.4668089 L8.37615182,12.5178175 C6.17633864,12.7530622 4.37006536,14.3614561 3.88297717,16.5187595 C3.39588899,18.6760629 4.33595232,20.9040949 6.22142105,22.0610752 L6.22142105,22.0610752 L6.22142105,24.0318645 L6.20982401,24.0318645 L6.03586835,23.953033 C3.28458346,22.68866 1.67300598,19.7850961 2.0559145,16.7823877 C2.43882302,13.7796794 4.7275518,11.3731294 7.70816209,10.8391687 C9.31847891,7.84256336 12.4534761,5.98079588 15.8562452,6.00014944 Z" id="Combined-Shape" fill="#005CE4" fill-rule="nonzero"></path>
    </g>
</svg>